<svg height="512" viewBox="0 0 512 512" width="512" xmlns="http://www.w3.org/2000/svg"><path d="m200 472h248a24 24 0 0 0 24-24v-320l-88-88h-184a24 24 0 0 0 -24 24v384a24 24 0 0 0 24 24z" fill="#d7e6f0"/><path d="m104 40a16 16 0 0 1 16 16v16a0 0 0 0 1 0 0h-32a0 0 0 0 1 0 0v-16a16 16 0 0 1 16-16z" fill="#faa51e"/><path d="m104 40a16 16 0 0 1 16 16v16a0 0 0 0 1 0 0h-16a0 0 0 0 1 0 0v-32a0 0 0 0 1 0 0z" fill="#f06423"/><path d="m72 104h64v200h-64z" fill="#faa51e"/><path d="m104 104h32v200h-32z" fill="#f06423"/><path d="m72 304h64v120h-64z" fill="#55525b"/><path d="m104 304h32v120h-32z" fill="#353744"/><path d="m136 424h-64l25.344 38.015a8 8 0 0 0 13.312 0z" fill="#f06423"/><path d="m114.667 456h-21.334l4.011 6.015a8 8 0 0 0 13.312 0z" fill="#353744"/><path d="m72 104v-16h-16a16 16 0 0 0 -16 16v95.548c0 8.615 6.621 16.028 15.226 16.434a16 16 0 1 0 .774-31.982v-80z" fill="#55525b"/><path d="m88 72h32a16 16 0 0 1 16 16v16a0 0 0 0 1 0 0h-64a0 0 0 0 1 0 0v-16a16 16 0 0 1 16-16z" fill="#55525b"/><path d="m104 72h16a16 16 0 0 1 16 16v16a0 0 0 0 1 0 0h-32a0 0 0 0 1 0 0v-32a0 0 0 0 1 0 0z" fill="#353744"/><g fill="#aac3d7"><path d="m472 128h-64a24 24 0 0 1 -24-24v-64z"/><rect height="32" rx="16" width="216" x="216" y="160"/><rect height="32" rx="16" width="216" x="216" y="224"/><rect height="32" rx="16" width="216" x="216" y="288"/><rect height="32" rx="16" width="80" x="352" y="384"/></g></svg>