<svg height="512pt" viewBox="-40 0 512 512.001" width="512pt" xmlns="http://www.w3.org/2000/svg"><path d="m278.5 0h-264.582031c-7.683594 0-13.917969 6.230469-13.917969 13.917969v458.597656c0 7.683594 6.234375 13.914063 13.917969 13.914063h337.683593c7.6875 0 13.917969-6.230469 13.917969-13.914063v-385.496094zm0 0" fill="#ededed"/><path d="m238.425781 454.496094h-238.425781v18.019531c0 7.683594 6.230469 13.914063 13.917969 13.914063h248.710937c-10.035156-8.890626-18.304687-19.730469-24.203125-31.933594zm0 0" fill="#d6d6d6"/><path d="m304.15625 117.539062h9.804688v192.273438c5.246093-.835938 10.621093-1.273438 16.105468-1.273438 12.46875 0 24.414063 2.246094 35.453125 6.355469v-227.875h-68.523437v23.359375c0 3.953125 3.207031 7.160156 7.160156 7.160156zm0 0" fill="#d6d6d6"/><path d="m278.5 79.859375v-79.859375l87.019531 87.019531h-79.859375c-3.957031 0-7.160156-3.203125-7.160156-7.160156zm0 0" fill="#75cff2"/><path d="m431.792969 410.269531c0 56.183594-45.546875 101.730469-101.730469 101.730469s-101.730469-45.546875-101.730469-101.730469c0-56.183593 45.546875-101.730469 101.730469-101.730469s101.730469 45.546876 101.730469 101.730469zm0 0" fill="#a4d852"/><path d="m330.0625 308.539062c-8.960938 0-17.648438 1.164063-25.925781 3.339844 43.625 11.464844 75.804687 51.167969 75.804687 98.390625 0 47.222657-32.179687 86.925781-75.804687 98.390625 8.277343 2.175782 16.964843 3.339844 25.925781 3.339844 56.183594 0 101.730469-45.546875 101.730469-101.730469 0-56.183593-45.546875-101.730469-101.730469-101.730469zm0 0" fill="#97c63e"/><path d="m304.222656 400.226562v-24.148437c0-14.246094 11.59375-25.839844 25.84375-25.839844 14.246094 0 25.835938 11.59375 25.835938 25.839844v24.148437h15.453125v-24.148437c0-22.769531-18.523438-41.292969-41.289063-41.292969-22.769531 0-41.292968 18.523438-41.292968 41.292969v24.148437zm0 0" fill="#ededed"/><path d="m372.25 464.476562h-84.371094c-2.304687 0-4.167968-1.863281-4.167968-4.167968v-60.339844c0-2.300781 1.863281-4.167969 4.167968-4.167969h84.371094c2.300781 0 4.167969 1.867188 4.167969 4.167969v60.339844c0 2.304687-1.867188 4.167968-4.167969 4.167968zm0 0" fill="#f79f48"/><path d="m372.25 395.800781h-47.683594v68.675781h47.683594c2.300781 0 4.167969-1.863281 4.167969-4.167968v-60.339844c0-2.300781-1.867188-4.167969-4.167969-4.167969zm0 0" fill="#ef8229"/><path d="m306.238281 447.078125c4.269531 0 7.726563-3.460937 7.726563-7.726563v-14.363281c0-4.269531-3.457032-7.726562-7.726563-7.726562-4.265625 0-7.726562 3.457031-7.726562 7.726562v14.363281c0 4.269532 3.460937 7.726563 7.726562 7.726563zm0 0" fill="#ffe471"/><path d="m330.066406 447.078125c4.265625 0 7.722656-3.460937 7.722656-7.726563v-14.363281c0-4.269531-3.457031-7.726562-7.722656-7.726562-4.269531 0-7.726562 3.457031-7.726562 7.726562v14.363281c-.003906 4.269532 3.457031 7.726563 7.726562 7.726563zm0 0" fill="#ffe471"/><path d="m353.886719 447.078125c4.269531 0 7.726562-3.460937 7.726562-7.726563v-14.363281c0-4.269531-3.457031-7.726562-7.726562-7.726562-4.265625 0-7.726563 3.457031-7.726563 7.726562v14.363281c0 4.269532 3.460938 7.726563 7.726563 7.726563zm0 0" fill="#ffe471"/><g fill="#f2ca20"><path d="m309.964844 149.375h-254.410156c-4.265626 0-7.726563 3.460938-7.726563 7.726562 0 4.265626 3.460937 7.726563 7.726563 7.726563h254.410156c4.265625 0 7.726562-3.460937 7.726562-7.726563 0-4.265624-3.457031-7.726562-7.726562-7.726562zm0 0"/><path d="m309.964844 201.914062h-254.410156c-4.265626 0-7.726563 3.460938-7.726563 7.726563 0 4.269531 3.460937 7.726563 7.726563 7.726563h254.410156c4.265625 0 7.726562-3.460938 7.726562-7.726563s-3.457031-7.726563-7.726562-7.726563zm0 0"/><path d="m309.964844 254.453125h-254.410156c-4.265626 0-7.726563 3.460937-7.726563 7.726563 0 4.269531 3.460937 7.726562 7.726563 7.726562h254.410156c4.265625 0 7.726562-3.457031 7.726562-7.726562 0-4.265626-3.457031-7.726563-7.726562-7.726563zm0 0"/><path d="m55.554688 328.628906c-4.265626 0-7.726563 3.457032-7.726563 7.726563 0 4.265625 3.460937 7.722656 7.726563 7.722656h114.414062c4.269531 0 7.726562-3.457031 7.726562-7.722656 0-4.269531-3.457031-7.726563-7.726562-7.726563zm0 0"/></g><path d="m55.554688 94.746094h70.71875c4.265624 0 7.722656-3.457032 7.722656-7.726563 0-4.265625-3.457032-7.722656-7.722656-7.722656h-70.71875c-4.265626 0-7.726563 3.457031-7.726563 7.722656 0 4.269531 3.460937 7.726563 7.726563 7.726563zm0 0" fill="#97c63e"/><path d="m55.554688 56.316406h70.71875c4.265624 0 7.722656-3.457031 7.722656-7.726562 0-4.265625-3.457032-7.726563-7.722656-7.726563h-70.71875c-4.265626 0-7.726563 3.460938-7.726563 7.726563 0 4.269531 3.460937 7.726562 7.726563 7.726562zm0 0" fill="#97c63e"/></svg>