<?xml version="1.0"?>
<svg xmlns="http://www.w3.org/2000/svg" id="line_Icons" data-name="line Icons" viewBox="0 0 74 74" width="512" height="512" fill="#fff"><path d="M19.6,60.961a1,1,0,0,1-.464-.114l-16.6-8.7A1,1,0,0,1,2.349,50.5l16.6-14.26A1,1,0,0,1,20.6,37v5.528H48.229a1,1,0,0,1,1,1v9.905a1,1,0,0,1-1,1H20.6v5.528a1,1,0,0,1-1,1ZM4.77,51.059,18.6,58.308V53.433a1,1,0,0,1,1-1H47.229V44.528H19.6a1,1,0,0,1-1-1V39.177Z"/><path d="M54.4,38a1,1,0,0,1-1-1V31.472H25.771a1,1,0,0,1-1-1V20.567a1,1,0,0,1,1-1H53.4V14.039a1,1,0,0,1,1.651-.759l16.6,14.261a1,1,0,0,1-.187,1.645l-16.6,8.7A1,1,0,0,1,54.4,38ZM26.771,29.472H54.4a1,1,0,0,1,1,1v4.875L69.23,28.1,55.4,16.216v4.351a1,1,0,0,1-1,1H26.771Z"/></svg>
